PathFileType	4	(X/Y/Z)	pose2sim_0-707.trc
DataRate	CameraRate	NumFrames	NumMarkers	Units	OrigDataRate	OrigDataStartFrame	OrigNumFrames
50	50	4	22	m	50	0	708
Frame#	Time	Hip			RHip			RKnee			RAnkle			RBigToe			RSmallToe			RHeel			LHip			LKnee			LAnkle			LBigToe			LSmallToe			LHeel			Neck			Head			Nose			RShoulder			RElbow			RWrist			LShoulder			LElbow			LWrist			
		X1	Y1	Z1	X2	Y2	Z2	X3	Y3	Z3	X4	Y4	Z4	X5	Y5	Z5	X6	Y6	Z6	X7	Y7	Z7	X8	Y8	Z8	X9	Y9	Z9	X10	Y10	Z10	X11	Y11	Z11	X12	Y12	Z12	X13	Y13	Z13	X14	Y14	Z14	X15	Y15	Z15	X16	Y16	Z16	X17	Y17	Z17	X18	Y18	Z18	X19	Y19	Z19	X20	Y20	Z20	X21	Y21	Z21	X22	Y22	Z22	
0	0.0	0.11154913357833754	0.911660549936821	-0.1211922343784965	0.003385856446103144	0.8947085598303485	-0.12082963603976965	-0.023922587710048404	0.4967794508478636	-0.13895639113343422	-0.017866982964149045	0.10152574772932847	-0.16588733524931593	-0.03276749645944409	0.05204814667394408	0.048201381617244396	-0.0796323917860533	0.0514763772204796	-0.006048954543842411	-0.00835659621623438	0.049911791870623765	-0.20085179001107695	0.22263078541159428	0.8930707709041863	-0.12173695419086912	0.24373722783950283	0.49794755009893193	-0.14768834093031905	0.2602192871425101	0.1027541260817501	-0.16415891248850245	0.282554554039513	0.05228798417967359	0.02302893961087062	0.3174389816526485	0.05219608169227847	-0.03418461536924735	0.24754056865429472	0.05164895215017729	-0.19921028247107478	0.12333706463055541	1.5267503803461262	-0.10718757997395822	0.12799310427137658	1.7510699612854939	-0.09022406432145781	0.1223726957532609	1.631492764145672	-0.0050627744869065966	-0.06486178853098286	1.418550942836776	-0.11932188268605036	-0.1269566713286838	1.1403281389889561	-0.15429982091647432	-0.17644552082357795	0.8943156166340198	-0.09399339258159985	0.30766621308092124	1.4144302577651229	-0.13917145927532115	0.36824494201664176	1.1293984137618256	-0.1513440404144357	0.4057848882524454	0.8810527005151982	-0.1003003116878286
1	0.02	0.11276024359177947	0.9092272482547661	-0.11943868466919855	0.001884993015224276	0.8993265640200713	-0.11651602281685083	-0.021549465543779366	0.49867884967931064	-0.13487254573384658	-0.01824712354436869	0.10076291309114033	-0.151236911218117	-0.03516960625773939	0.05092603149420213	0.05510251981089068	-0.07871917832874432	0.049594752448012154	-0.015043250296319617	-0.006946195182644863	0.05624662753461139	-0.19386976154064706	0.2275308122448522	0.8968570831858976	-0.11899536042374476	0.24513519151062463	0.4984783290821924	-0.14300721682337791	0.25969990388523206	0.0972675825673669	-0.16178525151222425	0.28312273562453133	0.04723953241431259	0.027400104614242308	0.3203578091450333	0.049496560256271166	-0.03108581413555816	0.2533137042145394	0.05322544836481007	-0.2066340825890369	0.12232799080387517	1.5243976381128441	-0.1058009438390101	0.12731837482879274	1.756119697617223	-0.0885154324555486	0.12049056033631401	1.6357335321916968	0.019558045437095658	-0.059227141078956755	1.4220507166399825	-0.11570621330765628	-0.12128615012407576	1.1428850841786213	-0.1468260780706186	-0.17354548916638457	0.8989545941539696	-0.09583497714042112	0.3003337116772196	1.4196227692906935	-0.13147068251247865	0.3638643420717588	1.1377032871567998	-0.14969578540943448	0.40502406783857847	0.8836136324491669	-0.09590472072423452
2	0.04	0.11214445621861108	0.9094206983092458	-0.11352748828750997	-0.0005619279463009794	0.8993460104343551	-0.11442569019588544	-0.022419047609920945	0.4976509673149375	-0.13180459987767412	-0.0195836377607916	0.10167076051568578	-0.1504121296599807	-0.04075437568687066	0.0527753497889556	0.048770732069993016	-0.08326873696284563	0.05296811072087011	-0.017689532468897252	-0.006778213081303749	0.0556254316215399	-0.19712551701103828	0.22841341543563556	0.8955470805912863	-0.12078660991565347	0.24756608953202508	0.4960585872960326	-0.14110382962143805	0.2582017891848948	0.09650548144154797	-0.1596603490944259	0.2853861002064928	0.04893235182547105	0.026285214826006074	0.3227310886535291	0.049829629106633154	-0.029952404524372422	0.2508270004970795	0.05062764843971529	-0.2023235250529151	0.12426431049148608	1.5255168005029571	-0.1074825981242468	0.12803271265548066	1.7555477325379014	-0.08735011148674056	0.1174207942420655	1.6345530447393077	0.03022091208782177	-0.05913045951714207	1.42569687599947	-0.122811667803826	-0.12415196171947854	1.1434147923915383	-0.14727185642775628	-0.17473975449719265	0.897593767880521	-0.09193730382533678	0.2999375021194456	1.4181064962693317	-0.1303141530592572	0.3676720368037809	1.1378678538181048	-0.1557086838602462	0.40741354756455034	0.8833995815491498	-0.09960550226334997
3	0.06	0.11294465524248405	0.9081551016853452	-0.1179967660239325	0.00021890407130746746	0.8981351139379713	-0.11868637590284815	-0.021739156577923194	0.4966141861174223	-0.1346496424036855	-0.017694346459711005	0.09929954843686581	-0.15473392054377175	-0.03881672470658655	0.052892569049315205	0.047343683076388435	-0.0826571734251029	0.05196749603739319	-0.01799616724984852	-0.006098285023669338	0.056046208529031874	-0.19623641562257052	0.2276279675683033	0.8956110551317557	-0.11975997327965206	0.24697177147024565	0.4963800462022175	-0.14107122253596727	0.25865435973597817	0.09701058164745664	-0.15942021536191137	0.2821131856715277	0.050997839289077015	0.03279080357500582	0.32064117825230903	0.05164736100538584	-0.02705666166389843	0.25183464217878543	0.05228061288732527	-0.204405180063316	0.12362719493669098	1.524208022134415	-0.10594767785946843	0.12860055291077563	1.7576225731304307	-0.0883749418456873	0.11537966533635932	1.6358724788755865	0.029555979265875606	-0.05974593481051613	1.4229466938774729	-0.12037823982677062	-0.12325446166284112	1.1432293351958467	-0.14800863790611185	-0.17402502237944287	0.8989157104008725	-0.0936727658721278	0.30055865809391236	1.420367609635559	-0.13234118109736437	0.36702850970099465	1.137658616040544	-0.15459432759752198	0.40684625920067097	0.884467819451717	-0.09844610052212661
